Agneepath - 2012 - 1080p DVDRip - x264 - AC3 5.1 - ESubs - DrC - [D!D]

Screenshots :
 
http://i.imgur.com/lzkz4.jpg
 
http://i.imgur.com/mBOI8.jpg
 
http://i.imgur.com/UGLZH.jpg
 
http://i.imgur.com/z5JI2.jpg
 
http://i.imgur.com/gPgG6.jpg
 
http://i.imgur.com/bYOMi.jpg


Rip Specs :

General

Format                                   : Matroska
Format version                           : Version 2
File size                                : 4.37 GiB
Duration                                 : 2h 54mn
Overall bit rate mode                    : Variable
Overall bit rate                         : 3 594 Kbps


Video
ID                                       : 1
Format                                   : AVC
Format/Info                              : Advanced Video Codec
Format profile                           : High@L4.1
Format settings, CABAC                   : Yes
Format settings, ReFrames                : 3 frames
Codec ID                                 : V_MPEG4/ISO/AVC
Duration                                 : 2h 54mn
Bit rate mode                            : Variable
Bit rate                                 : 3 143 Kbps
Maximum bit rate                         : 40.0 Mbps
Width                                    : 1 920 pixels
Height                                   : 816 pixels
Display aspect ratio                     : 2.35:1
Frame rate                               : 23.976 fps
Color space                              : YUV
Chroma subsampling                       : 4:2:0
Bit depth                                : 8 bits
Scan type                                : Progressive
Bits/(Pixel*Frame)                       : 0.084
Stream size                              : 3.74 GiB (86%)


Audio

Format                                   : AC-3
Format/Info                              : Audio Coding 3
Mode extension                           : CM (complete main)
Codec ID                                 : A_AC3
Duration                                 : 2h 54mn
Bit rate mode                            : Constant
Bit rate                                 : 448 Kbps
Channel(s)                               : 6 channels
Channel positions                        : Front: L C R, Side: L R, LFE
Sampling rate                            : 48.0 KHz
Bit depth                                : 16 bits
Compression mode                         : Lossy
Stream size                              : 558 MiB (12%)


Text
Format                                   : VobSub
Muxing mode                              : zlib
Codec ID                                 : S_VOBSUB
Codec ID/Info                            : The same subtitle format used on DVDs
Language                                 : Hindi
Default                                  : Yes
Forced                                   : No